<svg width="91" height="36" viewBox="0 0 91 36" fill="none" xmlns="http://www.w3.org/2000/svg">
<g clip-path="url(#clip0)">
<path d="M48.8539 18.5959H45.0059V34.2419H48.8539V18.5959Z" fill="white"/>
<path d="M63.1008 34.2419L58.3908 28.8709H57.2718V34.2419H53.4238V18.5959H61.3288C64.7098 18.5959 66.9488 20.651 66.9488 23.71C66.9808 24.8943 66.5834 26.0502 65.8298 26.9644C65.0763 27.8786 64.0175 28.4894 62.8488 28.684L67.7488 34.2419H63.1008ZM60.9088 25.649C62.2848 25.649 63.1708 24.902 63.1708 23.757C63.1708 22.636 62.2848 21.8889 60.9088 21.8889H57.2708V25.649H60.9088Z" fill="white"/>
<path d="M74.5038 18.5959H70.6558V34.2419H74.5038V18.5959Z" fill="white"/>
<path d="M90.7339 22.7759L86.9559 23.5469C86.8438 22.9125 86.5057 22.3401 86.0042 21.9357C85.5026 21.5312 84.8717 21.3221 84.2279 21.3469C82.9449 21.3469 82.1279 22.0469 82.1279 22.9349C82.1279 23.5649 82.408 24.0349 83.387 24.2429L86.6279 24.9669C89.3329 25.5739 90.9189 27.0449 90.9189 29.5209C90.9189 32.8599 87.9569 34.5879 84.4829 34.5879C80.9619 34.5879 78.0699 32.9069 77.6499 29.8479L81.6139 29.0769C81.7465 29.7766 82.1357 30.4015 82.7051 30.8291C83.2745 31.2568 83.983 31.4565 84.6919 31.3889C86.1379 31.3889 87.001 30.7349 87.001 29.7779C87.001 29.0779 86.6749 28.6339 85.5549 28.3999L82.2899 27.6999C80.0509 27.1859 78.09 26.0189 78.09 23.1699C78.09 20.1339 80.6079 18.2429 84.2699 18.2429C87.6699 18.2429 90.1459 19.9239 90.7289 22.7729" fill="white"/>
<path d="M17.9752 3.08793L3.08419 17.9999C1.11635 19.9766 0.0125102 22.6529 0.0146515 25.4421C0.0167929 28.2313 1.12474 30.9059 3.09562 32.8795C5.0665 34.8532 7.73951 35.9649 10.5287 35.971C13.3179 35.9771 15.9957 34.877 17.9752 32.9119L32.8652 17.9999C33.8583 17.0254 34.6486 15.8637 35.1904 14.5821C35.7323 13.3005 36.0149 11.9242 36.0219 10.5328C36.029 9.14133 35.7604 7.76227 35.2317 6.47519C34.703 5.1881 33.9245 4.01849 32.9414 3.03386C31.9582 2.04922 30.7897 1.26907 29.5034 0.738434C28.2171 0.207796 26.8385 -0.0628198 25.447 -0.0577926C24.0556 -0.0527653 22.6789 0.227805 21.3965 0.767724C20.114 1.30764 18.9512 2.09622 17.9752 3.08793Z" fill="url(#paint0_linear)"/>
<path d="M17.9738 17.9999C16.4987 16.5269 15.4937 14.6494 15.0859 12.605C14.6781 10.5606 14.8859 8.44121 15.683 6.51495C16.4801 4.5887 17.8306 2.94216 19.5637 1.78368C21.2969 0.625197 23.3347 0.00683594 25.4193 0.00683594C27.504 0.00683594 29.5418 0.625197 31.2749 1.78368C33.0081 2.94216 34.3586 4.5887 35.1557 6.51495C35.9528 8.44121 36.1606 10.5606 35.7528 12.605C35.345 14.6494 34.34 16.5269 32.8648 17.9999C30.8869 19.9684 28.2099 21.0734 25.4193 21.0734C22.6288 21.0734 19.9518 19.9684 17.9738 17.9999Z" fill="white"/>
</g>
<defs>
<linearGradient id="paint0_linear" x1="25.6159" y1="10.4626" x2="2.63025" y2="32.2464" gradientUnits="userSpaceOnUse">
<stop stop-color="#47F274"/>
<stop offset="1" stop-color="#2DFEEB"/>
</linearGradient>
<clipPath id="clip0">
<rect width="90.921" height="36" fill="white"/>
</clipPath>
</defs>
</svg>
